<svg width="59" height="62" viewBox="0.29345703125 0.1681365966796875 58.4130859375 61.663726806640625" fill="none" xmlns="http://www.w3.org/2000/svg">
<path d="M31.0933 62L30.2296 52.7H29.3659C21.1895 52.7 14.2511 50.1425 8.55066 45.0275C2.85022 39.9125 0 33.6867 0 26.35C0 19.0133 2.85022 12.7875 8.55066 7.6725C14.2511 2.5575 21.1895 0 29.3659 0C33.4541 0 37.2682 0.684067 40.8082 2.0522C44.3506 3.4224 47.461 5.30823 50.1397 7.7097C52.816 10.1132 54.9165 12.9032 56.4412 16.0797C57.9683 19.2582 58.7318 22.6817 58.7318 26.35C58.7318 30.225 58.027 33.945 56.6174 37.51C55.2056 41.075 53.2766 44.3817 50.8306 47.43C48.3823 50.4783 45.4745 53.2425 42.1072 55.7225C38.7376 58.2025 35.0663 60.295 31.0933 62ZM38.0029 50.685C42.0911 47.585 45.4158 43.9559 47.977 39.7978C50.5404 35.6376 51.8222 31.155 51.8222 26.35C51.8222 20.7183 49.6491 15.9516 45.3029 12.0497C40.9545 8.1499 35.6421 6.2 29.3659 6.2C23.0897 6.2 17.7785 8.1499 13.4323 12.0497C9.08385 15.9516 6.90962 20.7183 6.90962 26.35C6.90962 31.9817 9.08385 36.7484 13.4323 40.6503C17.7785 44.5501 23.0897 46.5 29.3659 46.5H38.0029V50.685ZM29.2795 43.3225C30.2584 43.3225 31.0933 43.0125 31.7843 42.3925C32.4752 41.7725 32.8207 41.0233 32.8207 40.145C32.8207 39.2667 32.4752 38.5175 31.7843 37.8975C31.0933 37.2775 30.2584 36.9675 29.2795 36.9675C28.3007 36.9675 27.4657 37.2775 26.7748 37.8975C26.0838 38.5175 25.7383 39.2667 25.7383 40.145C25.7383 41.0233 26.0838 41.7725 26.7748 42.3925C27.4657 43.0125 28.3007 43.3225 29.2795 43.3225ZM26.7748 33.48H31.957C31.957 31.93 32.1297 30.845 32.4752 30.225C32.8207 29.605 33.9147 28.4683 35.7573 26.815C36.7937 25.885 37.6574 24.8775 38.3484 23.7925C39.0394 22.7075 39.3848 21.545 39.3848 20.305C39.3848 17.67 38.3922 15.6932 36.4068 14.3747C34.4191 13.0582 32.0722 12.4 29.3659 12.4C26.8324 12.4 24.7019 13.0324 22.9745 14.2972C21.2471 15.5641 20.0379 17.1017 19.3469 18.91L24.1837 20.615C24.4716 19.7367 25.0186 18.8707 25.8247 18.0172C26.6308 17.1657 27.8112 16.74 29.3659 16.74C30.9206 16.74 32.0871 17.1275 32.8656 17.9025C33.6418 18.6775 34.0299 19.53 34.0299 20.46C34.0299 21.3383 33.742 22.1257 33.1662 22.8222C32.5904 23.5207 31.8994 24.2317 31.0933 24.955C29.078 26.505 27.855 27.7316 27.4243 28.6347C26.9913 29.5399 26.7748 31.155 26.7748 33.48Z" fill="white"/>
</svg>
